<?xml version="1.0" standalone="no"?>
<!DOCTYPE svg PUBLIC "-//W3C//DTD SVG 20010904//EN"
 "http://www.w3.org/TR/2001/REC-SVG-20010904/DTD/svg10.dtd">
<svg version="1.0" xmlns="http://www.w3.org/2000/svg"
 width="225.000000pt" height="225.000000pt" viewBox="0 0 225.000000 225.000000"
 preserveAspectRatio="xMidYMid meet">

<g transform="translate(0.000000,225.000000) scale(0.100000,-0.100000)"
fill="#000000" stroke="none">
<path d="M0 1125 l0 -1125 1125 0 1125 0 0 1125 0 1125 -1125 0 -1125 0 0
-1125z m630 722 c119 -63 117 -241 -3 -304 -20 -11 -56 -17 -98 -17 -56 0 -73
4 -109 28 -66 44 -96 132 -69 203 14 37 57 82 94 99 49 22 135 17 185 -9z
m1055 -471 c79 -36 136 -93 174 -175 44 -97 51 -163 51 -508 l0 -313 -169 0
-170 0 -3 318 c-3 294 -4 320 -23 357 -29 57 -75 85 -142 85 -82 0 -136 -36
-168 -112 -12 -31 -15 -90 -15 -343 l0 -305 -170 0 -170 0 0 505 0 505 170 0
170 0 0 -72 0 -73 26 37 c33 46 90 86 157 110 78 28 203 21 282 -16z m-985
-491 l0 -505 -170 0 -170 0 0 505 0 505 170 0 170 0 0 -505z"/>
</g>
</svg>
